<?xml version="1.0" encoding="iso-8859-1"?>
<!-- Generator: Adobe Illustrator 19.0.0, SVG Export Plug-In . SVG Version: 6.00 Build 0)  -->
<svg version="1.1" id="Layer_1" xmlns="http://www.w3.org/2000/svg" xmlns:xlink="http://www.w3.org/1999/xlink" x="0px" y="0px"
	 viewBox="0 0 512 512" style="enable-background:new 0 0 512 512;" xml:space="preserve">
<path d="M469.32,396.792V102.4c0-7.04-5.76-12.8-12.8-12.8H55.536c-7.04,0-12.8,5.76-12.8,12.8v294.392
	C42.736,396.792,470.384,396.792,469.32,396.792z"/>
<rect y="396.8" style="fill:#CCCBCA;" width="512" height="8.536"/>
<polygon style="fill:#AAAAAA;" points="486.4,422.4 25.6,422.4 0,405.328 512,405.328 "/>
<g style="opacity:0.7;">
	<path style="fill:#FFFFFF;" d="M299.04,396.8h-86.08c0.816,4.792,4.824,8.536,9.832,8.536H289.2
		C294.216,405.328,298.224,401.592,299.04,396.8z"/>
</g>
<rect x="59.552" y="106.432" style="fill:#DB2B42;" width="392.88" height="290.4"/>
<circle style="fill:#A2A9AA;" cx="255.664" cy="98.048" r="2.92"/>
<g style="opacity:0.15;">
	<polygon style="fill:#FFFFFF;" points="42.736,262.776 42.736,89.6 248.496,89.6 	"/>
</g>
<g>
</g>
<g>
</g>
<g>
</g>
<g>
</g>
<g>
</g>
<g>
</g>
<g>
</g>
<g>
</g>
<g>
</g>
<g>
</g>
<g>
</g>
<g>
</g>
<g>
</g>
<g>
</g>
<g>
</g>
</svg>
