<?xml version="1.0" encoding="iso-8859-1"?>
<!-- Generator: Adobe Illustrator 19.0.0, SVG Export Plug-In . SVG Version: 6.00 Build 0)  -->
<svg version="1.1" id="Layer_1" xmlns="http://www.w3.org/2000/svg" xmlns:xlink="http://www.w3.org/1999/xlink" x="0px" y="0px"
	 viewBox="0 0 512 512" style="enable-background:new 0 0 512 512;" xml:space="preserve">
<path style="fill:#FFFFFF;" d="M483.632,387.204H28.368c-15.6,0-28.368-12.76-28.368-28.368V69.98
	c0-15.6,12.768-28.368,28.368-28.368h455.264c15.6,0,28.368,12.768,28.368,28.368v288.864
	C512,374.444,499.232,387.204,483.632,387.204z"/>
<rect x="25.6" y="67.204" style="fill:#DB2B42;" width="460.8" height="294.4"/>
<rect x="166.536" y="387.196" style="fill:#CCCBCA;" width="152.8" height="54.744"/>
<polygon style="fill:#FFFFFF;" points="345.44,455.188 140.448,455.188 166.552,441.948 319.336,441.948 "/>
<polygon style="fill:#AAAAAA;" points="166.536,387.204 284.848,387.204 166.536,406.628 "/>
<rect x="140.448" y="455.188" style="fill:#CCCBCA;" width="204.992" height="15.2"/>
<g style="opacity:0.15;">
	<polygon style="fill:#FFFFFF;" points="25.6,241.22 25.6,67.204 232.352,67.204 	"/>
</g>
<g>
</g>
<g>
</g>
<g>
</g>
<g>
</g>
<g>
</g>
<g>
</g>
<g>
</g>
<g>
</g>
<g>
</g>
<g>
</g>
<g>
</g>
<g>
</g>
<g>
</g>
<g>
</g>
<g>
</g>
</svg>
